# Wavefront OBJ file automatically generated by Tiled2Unity

# Vertices (Count = 196)
v -128 -64 0
v -160 -64 0
v -160 -32 0
v -128 -32 0
v -192 -64 0
v -192 -32 0
v -224 -64 0
v -224 -32 0
v -256 -64 0
v -256 -32 0
v -288 -64 0
v -288 -32 0
v -320 -64 0
v -320 -32 0
v -448 -64 0
v -480 -64 0
v -480 -32 0
v -448 -32 0
v -512 -64 0
v -512 -32 0
v -544 -64 0
v -544 -32 0
v -576 -64 0
v -576 -32 0
v -608 -64 0
v -608 -32 0
v -640 -64 0
v -640 -32 0
v -672 -64 0
v -672 -32 0
v -704 -64 0
v -704 -32 0
v 0 -96 0
v -32 -96 0
v -32 -64 0
v 0 -64 0
v -64 -96 0
v -64 -64 0
v -96 -96 0
v -96 -64 0
v -128 -96 0
v -160 -96 0
v -192 -96 0
v -224 -96 0
v -256 -96 0
v -288 -96 0
v -320 -96 0
v -448 -96 0
v -480 -96 0
v -512 -96 0
v -544 -96 0
v -576 -96 0
v -608 -96 0
v -640 -96 0
v -672 -96 0
v -704 -96 0
v 0 -128 0
v -32 -128 0
v -64 -128 0
v -96 -128 0
v -128 -128 0
v -160 -128 0
v -192 -128 0
v -224 -128 0
v -256 -128 0
v -288 -128 0
v -320 -128 0
v -448 -128 0
v -480 -128 0
v -512 -128 0
v -544 -128 0
v -576 -128 0
v -608 -128 0
v -640 -128 0
v -672 -128 0
v -704 -128 0
v 0 -160 0
v -32 -160 0
v -64 -160 0
v -96 -160 0
v -128 -160 0
v -160 -160 0
v -192 -160 0
v -224 -160 0
v -256 -160 0
v -288 -160 0
v -320 -160 0
v -448 -160 0
v -480 -160 0
v -512 -160 0
v -544 -160 0
v -576 -160 0
v -608 -160 0
v -640 -160 0
v -672 -160 0
v -704 -160 0
v 0 -192 0
v -32 -192 0
v -64 -192 0
v -96 -192 0
v -128 -192 0
v -160 -192 0
v -192 -192 0
v -224 -192 0
v -256 -192 0
v -288 -192 0
v -320 -192 0
v -448 -192 0
v -480 -192 0
v -512 -192 0
v -544 -192 0
v -576 -192 0
v -608 -192 0
v -640 -192 0
v -672 -192 0
v -704 -192 0
v 0 -224 0
v -32 -224 0
v -64 -224 0
v -96 -224 0
v -128 -224 0
v -160 -224 0
v -192 -224 0
v -224 -224 0
v -256 -224 0
v -288 -224 0
v -320 -224 0
v -448 -224 0
v -480 -224 0
v -512 -224 0
v -544 -224 0
v -576 -224 0
v -608 -224 0
v -640 -224 0
v -672 -224 0
v -704 -224 0
v 0 -256 0
v -32 -256 0
v -64 -256 0
v -96 -256 0
v -128 -256 0
v -160 -256 0
v -192 -256 0
v -224 -256 0
v -256 -256 0
v -288 -256 0
v -320 -256 0
v -448 -256 0
v -480 -256 0
v -512 -256 0
v -544 -256 0
v -576 -256 0
v -608 -256 0
v -640 -256 0
v -672 -256 0
v -704 -256 0
v 0 -288 0
v -32 -288 0
v -64 -288 0
v -96 -288 0
v -128 -288 0
v -160 -288 0
v -192 -288 0
v -224 -288 0
v -256 -288 0
v -288 -288 0
v -320 -288 0
v -448 -288 0
v -480 -288 0
v -512 -288 0
v -544 -288 0
v -576 -288 0
v -608 -288 0
v -640 -288 0
v -672 -288 0
v -704 -288 0
v 0 -320 0
v -32 -320 0
v -64 -320 0
v -96 -320 0
v -128 -320 0
v -160 -320 0
v -192 -320 0
v -224 -320 0
v -256 -320 0
v -288 -320 0
v -320 -320 0
v -448 -320 0
v -480 -320 0
v -512 -320 0
v -544 -320 0
v -576 -320 0
v -608 -320 0
v -640 -320 0
v -672 -320 0
v -704 -320 0

# Texture cooridinates (Count = 28)
vt 0.0001220703 0.7501221
vt 0.3332113 0.7501221
vt 0.3332113 0.9998779
vt 0.0001220703 0.9998779
vt 0.6667888 0.7501221
vt 0.9998779 0.7501221
vt 0.9998779 0.9998779
vt 0.6667888 0.9998779
vt 0.3334554 0.7501221
vt 0.6665446 0.7501221
vt 0.6665446 0.9998779
vt 0.3334554 0.9998779
vt 0.0001220703 0.5001221
vt 0.3332113 0.5001221
vt 0.3332113 0.7498779
vt 0.0001220703 0.7498779
vt 0.3334554 0.5001221
vt 0.6665446 0.5001221
vt 0.6665446 0.7498779
vt 0.3334554 0.7498779
vt 0.3334554 0.2501221
vt 0.6665446 0.2501221
vt 0.6665446 0.4998779
vt 0.3334554 0.4998779
vt 0.0001220703 0.2501221
vt 0.3332113 0.2501221
vt 0.3332113 0.4998779
vt 0.0001220703 0.4998779

# Normal
vn 0 0 -1

# Groups (Count = 1)

g mesh_0001
f 1/1/1 2/2/1 3/3/1 4/4/1
f 2/1/1 5/2/1 6/3/1 3/4/1
f 5/1/1 7/2/1 8/3/1 6/4/1
f 7/1/1 9/2/1 10/3/1 8/4/1
f 9/1/1 11/2/1 12/3/1 10/4/1
f 11/5/1 13/6/1 14/7/1 12/8/1
f 15/9/1 16/10/1 17/11/1 18/12/1
f 16/1/1 19/2/1 20/3/1 17/4/1
f 19/1/1 21/2/1 22/3/1 20/4/1
f 21/1/1 23/2/1 24/3/1 22/4/1
f 23/1/1 25/2/1 26/3/1 24/4/1
f 25/1/1 27/2/1 28/3/1 26/4/1
f 27/1/1 29/2/1 30/3/1 28/4/1
f 29/1/1 31/2/1 32/3/1 30/4/1
f 33/1/1 34/2/1 35/3/1 36/4/1
f 34/1/1 37/2/1 38/3/1 35/4/1
f 37/1/1 39/2/1 40/3/1 38/4/1
f 39/1/1 41/2/1 1/3/1 40/4/1
f 41/13/1 42/14/1 2/15/1 1/16/1
f 42/17/1 43/18/1 5/19/1 2/20/1
f 43/17/1 44/18/1 7/19/1 5/20/1
f 44/17/1 45/18/1 9/19/1 7/20/1
f 45/17/1 46/18/1 11/19/1 9/20/1
f 46/21/1 47/22/1 13/23/1 11/24/1
f 48/25/1 49/26/1 16/27/1 15/28/1
f 49/17/1 50/18/1 19/19/1 16/20/1
f 50/17/1 51/18/1 21/19/1 19/20/1
f 51/17/1 52/18/1 23/19/1 21/20/1
f 52/17/1 53/18/1 25/19/1 23/20/1
f 53/17/1 54/18/1 27/19/1 25/20/1
f 54/17/1 55/18/1 29/19/1 27/20/1
f 55/17/1 56/18/1 31/19/1 29/20/1
f 57/17/1 58/18/1 34/19/1 33/20/1
f 58/17/1 59/18/1 37/19/1 34/20/1
f 59/17/1 60/18/1 39/19/1 37/20/1
f 60/17/1 61/18/1 41/19/1 39/20/1
f 61/17/1 62/18/1 42/19/1 41/20/1
f 62/17/1 63/18/1 43/19/1 42/20/1
f 63/17/1 64/18/1 44/19/1 43/20/1
f 64/17/1 65/18/1 45/19/1 44/20/1
f 65/17/1 66/18/1 46/19/1 45/20/1
f 66/21/1 67/22/1 47/23/1 46/24/1
f 68/25/1 69/26/1 49/27/1 48/28/1
f 69/17/1 70/18/1 50/19/1 49/20/1
f 70/17/1 71/18/1 51/19/1 50/20/1
f 71/17/1 72/18/1 52/19/1 51/20/1
f 72/17/1 73/18/1 53/19/1 52/20/1
f 73/17/1 74/18/1 54/19/1 53/20/1
f 74/17/1 75/18/1 55/19/1 54/20/1
f 75/17/1 76/18/1 56/19/1 55/20/1
f 77/17/1 78/18/1 58/19/1 57/20/1
f 78/17/1 79/18/1 59/19/1 58/20/1
f 79/17/1 80/18/1 60/19/1 59/20/1
f 80/17/1 81/18/1 61/19/1 60/20/1
f 81/17/1 82/18/1 62/19/1 61/20/1
f 82/17/1 83/18/1 63/19/1 62/20/1
f 83/17/1 84/18/1 64/19/1 63/20/1
f 84/17/1 85/18/1 65/19/1 64/20/1
f 85/17/1 86/18/1 66/19/1 65/20/1
f 86/21/1 87/22/1 67/23/1 66/24/1
f 88/25/1 89/26/1 69/27/1 68/28/1
f 89/17/1 90/18/1 70/19/1 69/20/1
f 90/17/1 91/18/1 71/19/1 70/20/1
f 91/17/1 92/18/1 72/19/1 71/20/1
f 92/17/1 93/18/1 73/19/1 72/20/1
f 93/17/1 94/18/1 74/19/1 73/20/1
f 94/17/1 95/18/1 75/19/1 74/20/1
f 95/17/1 96/18/1 76/19/1 75/20/1
f 97/17/1 98/18/1 78/19/1 77/20/1
f 98/17/1 99/18/1 79/19/1 78/20/1
f 99/17/1 100/18/1 80/19/1 79/20/1
f 100/17/1 101/18/1 81/19/1 80/20/1
f 101/17/1 102/18/1 82/19/1 81/20/1
f 102/17/1 103/18/1 83/19/1 82/20/1
f 103/17/1 104/18/1 84/19/1 83/20/1
f 104/17/1 105/18/1 85/19/1 84/20/1
f 105/17/1 106/18/1 86/19/1 85/20/1
f 106/21/1 107/22/1 87/23/1 86/24/1
f 108/25/1 109/26/1 89/27/1 88/28/1
f 109/17/1 110/18/1 90/19/1 89/20/1
f 110/17/1 111/18/1 91/19/1 90/20/1
f 111/17/1 112/18/1 92/19/1 91/20/1
f 112/17/1 113/18/1 93/19/1 92/20/1
f 113/17/1 114/18/1 94/19/1 93/20/1
f 114/17/1 115/18/1 95/19/1 94/20/1
f 115/17/1 116/18/1 96/19/1 95/20/1
f 117/17/1 118/18/1 98/19/1 97/20/1
f 118/17/1 119/18/1 99/19/1 98/20/1
f 119/17/1 120/18/1 100/19/1 99/20/1
f 120/17/1 121/18/1 101/19/1 100/20/1
f 121/17/1 122/18/1 102/19/1 101/20/1
f 122/17/1 123/18/1 103/19/1 102/20/1
f 123/17/1 124/18/1 104/19/1 103/20/1
f 124/17/1 125/18/1 105/19/1 104/20/1
f 125/17/1 126/18/1 106/19/1 105/20/1
f 126/21/1 127/22/1 107/23/1 106/24/1
f 128/25/1 129/26/1 109/27/1 108/28/1
f 129/17/1 130/18/1 110/19/1 109/20/1
f 130/17/1 131/18/1 111/19/1 110/20/1
f 131/17/1 132/18/1 112/19/1 111/20/1
f 132/17/1 133/18/1 113/19/1 112/20/1
f 133/17/1 134/18/1 114/19/1 113/20/1
f 134/17/1 135/18/1 115/19/1 114/20/1
f 135/17/1 136/18/1 116/19/1 115/20/1
f 137/17/1 138/18/1 118/19/1 117/20/1
f 138/17/1 139/18/1 119/19/1 118/20/1
f 139/17/1 140/18/1 120/19/1 119/20/1
f 140/17/1 141/18/1 121/19/1 120/20/1
f 141/17/1 142/18/1 122/19/1 121/20/1
f 142/17/1 143/18/1 123/19/1 122/20/1
f 143/17/1 144/18/1 124/19/1 123/20/1
f 144/17/1 145/18/1 125/19/1 124/20/1
f 145/17/1 146/18/1 126/19/1 125/20/1
f 146/21/1 147/22/1 127/23/1 126/24/1
f 148/25/1 149/26/1 129/27/1 128/28/1
f 149/17/1 150/18/1 130/19/1 129/20/1
f 150/17/1 151/18/1 131/19/1 130/20/1
f 151/17/1 152/18/1 132/19/1 131/20/1
f 152/17/1 153/18/1 133/19/1 132/20/1
f 153/17/1 154/18/1 134/19/1 133/20/1
f 154/17/1 155/18/1 135/19/1 134/20/1
f 155/17/1 156/18/1 136/19/1 135/20/1
f 157/17/1 158/18/1 138/19/1 137/20/1
f 158/17/1 159/18/1 139/19/1 138/20/1
f 159/17/1 160/18/1 140/19/1 139/20/1
f 160/17/1 161/18/1 141/19/1 140/20/1
f 161/17/1 162/18/1 142/19/1 141/20/1
f 162/17/1 163/18/1 143/19/1 142/20/1
f 163/17/1 164/18/1 144/19/1 143/20/1
f 164/17/1 165/18/1 145/19/1 144/20/1
f 165/17/1 166/18/1 146/19/1 145/20/1
f 166/21/1 167/22/1 147/23/1 146/24/1
f 168/25/1 169/26/1 149/27/1 148/28/1
f 169/17/1 170/18/1 150/19/1 149/20/1
f 170/17/1 171/18/1 151/19/1 150/20/1
f 171/17/1 172/18/1 152/19/1 151/20/1
f 172/17/1 173/18/1 153/19/1 152/20/1
f 173/17/1 174/18/1 154/19/1 153/20/1
f 174/17/1 175/18/1 155/19/1 154/20/1
f 175/17/1 176/18/1 156/19/1 155/20/1
f 177/17/1 178/18/1 158/19/1 157/20/1
f 178/17/1 179/18/1 159/19/1 158/20/1
f 179/17/1 180/18/1 160/19/1 159/20/1
f 180/17/1 181/18/1 161/19/1 160/20/1
f 181/17/1 182/18/1 162/19/1 161/20/1
f 182/17/1 183/18/1 163/19/1 162/20/1
f 183/17/1 184/18/1 164/19/1 163/20/1
f 184/17/1 185/18/1 165/19/1 164/20/1
f 185/17/1 186/18/1 166/19/1 165/20/1
f 186/21/1 187/22/1 167/23/1 166/24/1
f 188/25/1 189/26/1 169/27/1 168/28/1
f 189/17/1 190/18/1 170/19/1 169/20/1
f 190/17/1 191/18/1 171/19/1 170/20/1
f 191/17/1 192/18/1 172/19/1 171/20/1
f 192/17/1 193/18/1 173/19/1 172/20/1
f 193/17/1 194/18/1 174/19/1 173/20/1
f 194/17/1 195/18/1 175/19/1 174/20/1
f 195/17/1 196/18/1 176/19/1 175/20/1

